<svg width="30" height="30" viewBox="0 0 30 30" fill="none" xmlns="http://www.w3.org/2000/svg">
<g clip-path="url(#clip0)">
<path fill-rule="evenodd" clip-rule="evenodd" d="M3.75 29.0625V3.75C3.75 2.75544 4.14509 1.80161 4.84835 1.09835C5.55161 0.395088 6.50544 0 7.5 0L22.5 0C23.4946 0 24.4484 0.395088 25.1516 1.09835C25.8549 1.80161 26.25 2.75544 26.25 3.75V29.0625C26.2501 29.2253 26.2078 29.3853 26.1273 29.5268C26.0468 29.6683 25.9308 29.7864 25.7908 29.8695C25.6508 29.9525 25.4916 29.9977 25.3288 30.0005C25.166 30.0034 25.0053 29.9638 24.8625 29.8856L15 24.5044L5.1375 29.8856C4.99468 29.9638 4.83397 30.0034 4.6712 30.0005C4.50842 29.9977 4.34919 29.9525 4.20917 29.8695C4.06916 29.7864 3.95318 29.6683 3.87267 29.5268C3.79216 29.3853 3.74988 29.2253 3.75 29.0625ZM12.8512 9.64875C12.7641 9.56158 12.6606 9.49244 12.5467 9.44527C12.4328 9.3981 12.3108 9.37382 12.1875 9.37382C12.0642 9.37382 11.9422 9.3981 11.8283 9.44527C11.7144 9.49244 11.6109 9.56158 11.5237 9.64875C11.4366 9.73592 11.3674 9.83939 11.3203 9.95328C11.2731 10.0672 11.2488 10.1892 11.2488 10.3125C11.2488 10.4358 11.2731 10.5578 11.3203 10.6717C11.3674 10.7856 11.4366 10.8891 11.5237 10.9762L13.6744 13.125L11.5237 15.2738C11.4366 15.3609 11.3674 15.4644 11.3203 15.5783C11.2731 15.6922 11.2488 15.8142 11.2488 15.9375C11.2488 16.0608 11.2731 16.1828 11.3203 16.2967C11.3674 16.4106 11.4366 16.5141 11.5237 16.6012C11.6109 16.6884 11.7144 16.7576 11.8283 16.8047C11.9422 16.8519 12.0642 16.8762 12.1875 16.8762C12.3108 16.8762 12.4328 16.8519 12.5467 16.8047C12.6606 16.7576 12.7641 16.6884 12.8512 16.6012L15 14.4506L17.1488 16.6012C17.3248 16.7773 17.5635 16.8762 17.8125 16.8762C18.0615 16.8762 18.3002 16.7773 18.4762 16.6012C18.6523 16.4252 18.7512 16.1865 18.7512 15.9375C18.7512 15.6885 18.6523 15.4498 18.4762 15.2738L16.3256 13.125L18.4762 10.9762C18.6523 10.8002 18.7512 10.5615 18.7512 10.3125C18.7512 10.0635 18.6523 9.82479 18.4762 9.64875C18.3002 9.47271 18.0615 9.37382 17.8125 9.37382C17.5635 9.37382 17.3248 9.47271 17.1488 9.64875L15 11.7994L12.8512 9.64875Z" fill="#A4330D"/>
</g>
<defs>
<clipPath id="clip0">
<rect width="30" height="30" fill="white"/>
</clipPath>
</defs>
</svg>
